# xmcd
#
# Track frame offsets:
#	150
#	13606
#	27494
#	41975
#	57709
#	66476
#	83120
#	99240
#	114662
#	128356
#	143212
#	160678
#	179761
#	202709
#	211430
#	224080
#	240388
#	253296
#	263638
#	275686
#
# Disc length: 3835 seconds
#
# Revision: 0
# Processed by: cddbd v1.5.1PL2 Copyright (c) Steve Scherf et al.
# Submitted via: EasyCDDAExtractor 9.1.3.1
#
DISCID=320ef914
DTITLE=Мария Михайлова
DYEAR=1900
DGENRE=
TTITLE0=Недей тъгува
TTITLE1=Червени устни
TTITLE2=Спи, моя малка сеньорита
TTITLE3=Петли пропяха
TTITLE4=Майчино сърце
TTITLE5=Хавайски нощи
TTITLE6=Минаха години
TTITLE7=Ако е грях, че те обичам
TTITLE8=Намико
TTITLE9=Еделвайс
TTITLE10=Аз искам да те забравя
TTITLE11=Тази вечер празнувам разлъка
TTITLE12=Целувката на Ана
TTITLE13=Марияна
TTITLE14=Кармелита
TTITLE15=Драгиева чешма
TTITLE16=Защо мълчиш
TTITLE17=Само ти сърце си ми приятел
TTITLE18=Сняг се сипе над гората
TTITLE19=Капят жълтите листа в гората
EXTD=
EXTT0=
EXTT1=
EXTT2=
EXTT3=
EXTT4=
EXTT5=
EXTT6=
EXTT7=
EXTT8=
EXTT9=
EXTT10=
EXTT11=
EXTT12=
EXTT13=
EXTT14=
EXTT15=
EXTT16=
EXTT17=
EXTT18=
EXTT19=
PLAYORDER=
